# xmcd
# 
# Track frame offsets:
#     150
#     13013
#     29024
#     46507
#     66865
# 
# Disc length: 1143
# 
# Revision: 0
# Processed by: cddbd v1.5.2PL0 Copyright (c) Steve Scherf et al.
# Submitted via: fre:ac v1.0.17
# 
DISCID=38047505
DTITLE=Oakman  - Plastic World 
DYEAR=2018
DGENRE=Alt. Rock
TTITLE0=Clear Enough
TTITLE1=My King
TTITLE2=Fail
TTITLE3=Plastic World
TTITLE4=Spread
EXTD=©Lanzillotta/Oakman
EXTT0=©Lanzillotta/Oakman
EXTT1=©Lanzillotta/Oakman
EXTT2=©Lanzillotta/Oakman
EXTT3=©Lanzillotta/Oakman
EXTT4=©Lanzillotta/Oakman
PLAYORDER=
